# xmcd CD database file
#
# Track frame offsets:
#	183
#	26773
#	68208
#	90933
#	119590
#	156173
#	186798
#	222043
#
# Disc length: 3626 seconds
#
# Revision: 1
# Processed by: cddbd v1.5.2PL0 Copyright (c) Steve Scherf et al.
# Submitted via: CDex 1.51
#
DISCID=670e2808
DTITLE=Paolo Radoni Trio - A Day Or Two
DYEAR=1993
DGENRE=Jazz
TTITLE0=A Day or Two
TTITLE1=You'd Be So Nice to Come Home To
TTITLE2=Valseana
TTITLE3=The Final Riff
TTITLE4=Polka Dots and Moonbeams
TTITLE5=In the Mode
TTITLE6=One Hand, One Heart
TTITLE7=Chove Sol
EXTD=YEAR: 1993
EXTT0=
EXTT1=
EXTT2=
EXTT3=
EXTT4=
EXTT5=
EXTT6=
EXTT7=
PLAYORDER=
